<svg width="214" height="76" viewBox="0 0 214 76" fill="none" xmlns="http://www.w3.org/2000/svg">
<path d="M17.567 58.8268C17.8238 59.2053 17.9655 59.4027 17.9655 59.4027C17.9655 59.4027 17.9219 59.2355 17.8352 58.9273C17.7347 58.8772 17.6337 58.8279 17.5341 58.7766C17.5447 58.7931 17.5565 58.8111 17.567 58.8268Z" fill="#00AEEF"/>
<path d="M37.5689 60.7791C37.5164 61.6197 37.4859 62.5372 37.5035 63.4569C50.5474 60.1579 60.2012 48.3465 60.2012 34.2774C60.2012 23.0569 54.061 13.2716 44.9582 8.09496C44.8027 7.5924 44.6422 7.10933 44.4775 6.65193C44.218 5.92769 43.9532 5.26016 43.694 4.65068C43.5623 4.34663 43.435 4.05609 43.3102 3.78023C43.1828 3.50521 43.0554 3.2456 42.9377 2.99887C42.6948 2.50752 42.4753 2.07392 42.2687 1.70111C42.0634 1.32861 41.8908 1.01166 41.7389 0.763683C41.4405 0.263737 41.2728 0.000244141 41.2728 0.000244141C41.2728 0.000244141 41.3197 0.309015 41.4232 0.882014C41.4504 1.02508 41.477 1.18534 41.5042 1.36121C41.5337 1.53593 41.566 1.72658 41.601 1.93263C41.6382 2.13691 41.6688 2.36058 41.7057 2.59671C41.7427 2.83285 41.7874 3.08167 41.8242 3.34695C41.965 4.30355 42.1165 5.44274 42.2442 6.72939C42.2577 6.86617 42.2714 7.00315 42.2844 7.14329C42.359 7.93544 42.4179 8.78263 42.4587 9.67352C42.4928 10.4222 42.5143 11.2013 42.5195 12.0093C42.5168 12.8951 42.5016 13.813 42.4533 14.7592C42.4429 14.9957 42.4222 15.2342 42.4101 15.4739C42.4026 15.5939 42.3974 15.7142 42.3878 15.8349C42.3781 15.9556 42.3682 16.0768 42.3584 16.1984C42.3219 16.6845 42.2716 17.177 42.2223 17.6749C42.0051 19.6668 41.6645 21.7467 41.1917 23.8775C41.1307 24.1435 41.0694 24.4107 41.0078 24.6789C40.9477 24.947 40.8751 25.2148 40.8121 25.4847C40.749 25.7545 40.6765 26.0242 40.6063 26.2948C40.5709 26.4301 40.5356 26.5655 40.5001 26.7012C40.4626 26.8366 40.425 26.9723 40.3873 27.1081C40.3139 27.3802 40.2412 27.6529 40.1607 27.9255C40.0808 28.198 40.0067 28.4721 39.9212 28.7452C39.839 29.0189 39.7565 29.2933 39.6738 29.5682C39.5894 29.8378 39.5048 30.1079 39.4201 30.3786C39.3281 30.661 39.2361 30.944 39.1437 31.2275L39.0103 31.6309L38.8705 32.0425C38.7775 32.3182 38.6796 32.5942 38.5825 32.8706C38.4849 33.1475 38.3871 33.4248 38.2894 33.7024C38.0904 34.2582 37.8836 34.813 37.6769 35.3729C37.4709 35.9321 37.2589 36.4928 37.0436 37.055C36.1926 39.3066 35.3034 41.5922 34.5006 43.9178C33.697 46.2421 32.989 48.6126 32.4948 50.9849C31.9962 53.354 31.7261 55.724 31.7149 57.9737C31.7081 59.2807 31.7901 60.5423 31.9388 61.7436C32.0462 62.6113 32.1872 63.4484 32.3597 64.244C32.3633 64.2606 32.3673 64.2763 32.3708 64.2928C32.5739 65.2235 32.8098 66.1029 33.0741 66.9231C33.1396 67.1322 33.2119 67.3362 33.2791 67.5382C33.3449 67.7405 33.4186 67.9372 33.491 68.1309C33.5642 68.3243 33.6311 68.516 33.7065 68.7016C33.7814 68.8869 33.8554 69.0695 33.9281 69.2491C34.2269 69.9637 34.5281 70.6196 34.8291 71.2131C34.9044 71.3612 34.978 71.5061 35.0502 71.6481C35.1223 71.7898 35.1993 71.9257 35.271 72.0595C35.4143 72.3273 35.5562 72.5796 35.6963 72.8158C36.2414 73.7674 36.7253 74.478 37.0574 74.9583C37.3963 75.4354 37.5842 75.6832 37.5842 75.6832C37.5842 75.6832 37.5129 75.3778 37.3659 74.817C37.329 74.677 37.2931 74.5184 37.2507 74.3456C37.2077 74.1736 37.1607 73.9858 37.11 73.7828C37.0179 73.3741 36.9018 72.9105 36.7895 72.3884C36.565 71.3447 36.3089 70.0837 36.1054 68.6434C36.0034 67.9234 35.9165 67.1588 35.8461 66.3572C35.7778 65.5574 35.7367 64.7192 35.7238 63.8507C35.7238 63.8483 35.7237 63.8459 35.7237 63.8435C35.7114 62.995 35.7324 62.1168 35.7903 61.2155C35.8513 60.2658 35.9536 59.2904 36.1045 58.2948C36.4002 56.3537 36.8777 54.339 37.5212 52.2697C37.8406 51.2352 38.2009 50.1852 38.5888 49.1219C38.7823 48.5893 38.982 48.054 39.1919 47.5151C39.3959 46.9752 39.6096 46.4316 39.8268 45.8851C40.6921 43.6962 41.6232 41.4438 42.5038 39.1232C42.9403 37.9624 43.3685 36.7854 43.764 35.5941C43.8623 35.2955 43.9621 34.9981 44.0572 34.6985C44.1511 34.3982 44.2453 34.0988 44.3352 33.797L44.4714 33.3436C44.5163 33.1893 44.5613 33.0351 44.6063 32.8812L44.6724 32.6526L44.7324 32.4346C44.7719 32.2891 44.8115 32.1438 44.8509 31.9986C44.9307 31.6906 45.0106 31.3833 45.0902 31.0766C45.1668 30.7745 45.2401 30.4714 45.3113 30.1691C45.3848 29.8676 45.4472 29.5627 45.5149 29.2608C45.5832 28.9592 45.644 28.6558 45.7051 28.3538C45.7348 28.2026 45.7647 28.0517 45.7944 27.901C45.8216 27.7495 45.8489 27.5984 45.8759 27.4474C45.9297 27.1454 45.9854 26.8453 46.0321 26.5436C46.1333 25.9426 46.212 25.341 46.2908 24.7452C46.5872 22.3573 46.685 20.0184 46.6031 17.8111C46.5774 17.2591 46.5537 16.7155 46.5055 16.1811C46.4948 16.0476 46.4841 15.9146 46.4736 15.7822C46.4627 15.6498 46.4476 15.518 46.4348 15.3868C46.4078 15.1245 46.3816 14.8646 46.3491 14.6074C46.3155 14.3505 46.282 14.0959 46.2489 13.8435C46.2165 13.5914 46.1715 13.3426 46.1332 13.0963C46.1134 12.9733 46.0937 12.8507 46.0739 12.7288C46.0517 12.6074 46.0296 12.4864 46.0074 12.3661C45.9675 12.1486 45.9268 11.9342 45.8842 11.7215C52.9856 16.7001 57.6292 24.9458 57.6292 34.2769C57.6295 46.8925 49.1435 57.5241 37.5689 60.7791Z" fill="white"/>
<path d="M34.9504 15.6765C34.9176 14.7082 34.8453 13.7688 34.7433 12.8658C34.7151 12.6403 34.6871 12.4169 34.6595 12.1954C34.6323 11.974 34.5943 11.7557 34.5622 11.5394C34.5454 11.4313 34.529 11.3237 34.5123 11.2167C34.4935 11.1099 34.4748 11.0038 34.4561 10.8981C34.4186 10.6869 34.3813 10.4781 34.3409 10.2721C34.1016 9.07278 33.8171 7.96514 33.5081 6.95875C33.3927 6.58279 33.2742 6.21973 33.1529 5.87312C32.953 5.30002 32.7507 4.76873 32.549 4.27686C32.5262 4.22152 32.5035 4.1644 32.4808 4.11011C32.3666 3.84305 32.2572 3.58689 32.1526 3.34205C32.0444 3.0991 31.9346 2.87009 31.8338 2.65219C31.6255 2.21849 31.4372 1.8353 31.2599 1.50578C31.0838 1.17657 30.936 0.896302 30.8056 0.676619C30.5493 0.2339 30.4059 0.000488281 30.4059 0.000488281C30.4059 0.000488281 30.4513 0.270794 30.549 0.772731C30.5746 0.898085 30.5999 1.03853 30.6258 1.19271C30.6538 1.34594 30.6843 1.51322 30.7173 1.69391C30.7524 1.87324 30.7819 2.06924 30.8169 2.27645C30.8518 2.48376 30.8938 2.70208 30.9289 2.93497C30.9652 3.16755 30.9996 3.41312 31.0427 3.66781C31.067 3.83812 31.0923 4.01567 31.1181 4.19636C31.1311 4.28713 31.1439 4.37716 31.1572 4.47055C31.1781 4.60942 31.1937 4.75249 31.211 4.89765C31.2292 5.0424 31.2479 5.18997 31.2668 5.34016C31.2873 5.48983 31.3021 5.64338 31.3184 5.79892C31.3356 5.95414 31.353 6.11199 31.3707 6.27235C31.3881 6.4391 31.4047 6.609 31.4206 6.7811C31.5268 7.93317 31.5974 9.20243 31.6169 10.561C31.6212 11.3426 31.614 12.1531 31.5772 12.9889C31.5694 13.1978 31.553 13.4085 31.5435 13.6203C31.5345 13.8322 31.5188 14.0456 31.5021 14.2605C31.4729 14.6901 31.4312 15.1254 31.3903 15.5656C31.2091 17.3266 30.9176 19.1664 30.5074 21.0511C30.3003 21.9932 30.0684 22.9473 29.8066 23.9081C29.7424 24.1486 29.6788 24.3898 29.6083 24.6307C29.5385 24.8717 29.4736 25.114 29.3987 25.3555C29.3266 25.5974 29.2542 25.8399 29.1817 26.0829C29.1076 26.3214 29.0334 26.5605 28.9589 26.8001C28.8784 27.0492 28.7977 27.2987 28.7168 27.5487L28.5992 27.9059L28.4764 28.2697C28.3111 28.7566 28.1376 29.2449 27.9651 29.7355C27.6113 30.715 27.2475 31.7018 26.8678 32.693C26.1177 34.6775 25.3334 36.6885 24.6245 38.7314C23.915 40.773 23.2886 42.8516 22.8485 44.9299C22.4046 47.0056 22.1596 49.08 22.1403 51.05C22.1203 53.0213 22.3242 54.8808 22.673 56.5457C22.8473 57.3786 23.052 58.165 23.2819 58.8988C23.3378 59.0827 23.3998 59.262 23.4572 59.4395C23.5135 59.6174 23.5765 59.7907 23.6387 59.9609C23.7014 60.131 23.7586 60.2997 23.8233 60.4631C23.8878 60.6263 23.9511 60.7871 24.0134 60.9453C24.0416 61.0143 24.0699 61.0805 24.0981 61.1483C21.8995 60.6593 19.8004 59.9075 17.8347 58.9274C17.9212 59.2356 17.9649 59.4029 17.9649 59.4029C17.9649 59.4029 17.8232 59.2054 17.5664 58.8269C17.5561 58.8112 17.5442 58.7932 17.5335 58.7768C8.64927 54.2104 2.57152 44.9541 2.57152 34.2777C2.57152 22.4761 9.99808 12.4099 20.4324 8.49538C20.2078 7.52378 19.873 6.70658 19.554 6.07929C8.13224 10.3529 0 21.3646 0 34.2777C0 49.3369 11.0585 61.8127 25.4979 64.0283C25.5097 64.0488 25.5216 64.071 25.5334 64.0913C26.0025 64.9322 26.4192 65.5615 26.7051 65.9873C26.9969 66.4101 27.1583 66.6303 27.1583 66.6303C27.1583 66.6303 27.0915 66.3633 26.9558 65.8725C26.8913 65.6266 26.812 65.3234 26.7188 64.9668C26.6604 64.723 26.592 64.455 26.5214 64.1654C26.4883 64.0296 26.455 63.8905 26.4217 63.7443C26.2707 63.0902 26.1075 62.3356 25.9564 61.4961C25.896 61.1615 25.8376 60.8147 25.7826 60.4533C25.6863 59.8196 25.603 59.146 25.5342 58.4392C25.4672 57.7321 25.424 56.9902 25.4063 56.2207C25.3713 54.6811 25.4574 53.0299 25.7069 51.3112C25.9575 49.5918 26.3708 47.806 26.9325 45.9741C27.4892 44.1411 28.1933 42.2618 28.952 40.33C29.7118 38.3983 30.5301 36.4142 31.3042 34.3735C31.6882 33.3527 32.0649 32.3185 32.4132 31.2726C32.4996 31.0104 32.5876 30.7494 32.6714 30.4863C32.754 30.2227 32.8371 29.9599 32.9165 29.6951L33.0364 29.2973L33.1551 28.8922L33.2133 28.6918L33.2663 28.4999C33.3013 28.3719 33.3364 28.2441 33.3713 28.1163C33.4418 27.8465 33.5122 27.5772 33.5825 27.3085C33.6503 27.0435 33.715 26.7776 33.7781 26.5124C33.8432 26.2479 33.8986 25.9805 33.9586 25.7158C34.0192 25.4513 34.0729 25.1853 34.1272 24.9203C34.3392 23.8595 34.5168 22.8028 34.6503 21.7562C34.9179 19.6627 35.0122 17.6124 34.9504 15.6765Z" fill="white"/>
<path d="M17.7793 58.7295C17.7202 58.511 17.6474 58.2415 17.5617 57.9246C17.4828 57.6062 17.3846 57.2448 17.2887 56.8373C17.0956 56.0232 16.8764 55.0371 16.698 53.9069C16.6102 53.3415 16.5309 52.7412 16.4666 52.1103C16.4029 51.4792 16.361 50.8168 16.3416 50.1294C16.3032 48.754 16.3735 47.2771 16.5905 45.7392C16.8088 44.2006 17.1735 42.602 17.6716 40.9633C18.1651 39.3235 18.7911 37.6435 19.4665 35.9189C20.1427 34.1942 20.8715 32.4247 21.5611 30.6066C21.9034 29.6973 22.2387 28.7763 22.5494 27.8454C22.7056 27.3796 22.8566 26.9125 22.9985 26.4415C23.0702 26.2087 23.1409 25.9679 23.2112 25.7276L23.2631 25.5493L23.3107 25.3783L23.4046 25.0364C23.4676 24.7965 23.5305 24.5572 23.5931 24.3182C23.6537 24.0824 23.7115 23.8458 23.768 23.61C23.8262 23.3747 23.8759 23.1369 23.9295 22.9014C23.9838 22.6661 24.0321 22.4295 24.0806 22.1939C24.2705 21.2504 24.4303 20.3107 24.551 19.38C24.7922 17.5183 24.8808 15.6952 24.8312 13.9731C24.8046 13.1119 24.7432 12.2762 24.6555 11.4726C24.5669 10.6689 24.4439 9.89788 24.3069 9.1641C24.1898 8.5649 24.0601 7.99232 23.9213 7.44531C23.7204 6.65347 23.5002 5.91697 23.2681 5.24503C23.2366 5.15479 23.2056 5.06738 23.1742 4.97923C23.0091 4.51293 22.8472 4.07461 22.6803 3.67203C22.5804 3.4337 22.4842 3.2051 22.3926 2.98657C22.2977 2.76962 22.2015 2.56513 22.1132 2.3705C21.7514 1.59616 21.4339 1.00157 21.2112 0.604966C20.9864 0.208992 20.8607 0 20.8607 0C20.8607 0 20.9033 0.240121 20.9941 0.686299C21.0177 0.797713 21.0413 0.922646 21.0656 1.05963C21.0915 1.19589 21.1199 1.34472 21.1507 1.50539C21.1831 1.66481 21.2108 1.83932 21.2435 2.02368C21.276 2.20815 21.3148 2.40247 21.3476 2.60968C21.4778 3.38087 21.6172 4.30614 21.7367 5.3555C21.7453 5.43096 21.7541 5.50538 21.7624 5.5821C21.8429 6.32269 21.9082 7.12418 21.9517 7.97492C21.9754 8.4386 21.9929 8.91644 22.0022 9.40821C22.0094 10.1059 22.0065 10.8297 21.977 11.5765C21.9454 12.3233 21.894 13.0921 21.8191 13.8791C21.6633 15.4529 21.4078 17.0981 21.0452 18.7831C20.8623 19.6253 20.6568 20.4783 20.4246 21.3371C20.3676 21.5521 20.311 21.7677 20.2484 21.983C20.1864 22.1984 20.1288 22.415 20.0622 22.6308C19.998 22.847 19.9338 23.0636 19.8692 23.2809C19.8033 23.4942 19.7372 23.708 19.6709 23.9224C19.5992 24.1446 19.5276 24.3672 19.4555 24.5903C19.386 24.8028 19.3164 25.0156 19.2411 25.2349C19.0939 25.67 18.9394 26.1062 18.7855 26.5443C18.4701 27.419 18.1456 28.2998 17.8071 29.1843C17.1377 30.9548 16.4376 32.7471 15.8045 34.5658C15.1708 36.3835 14.6106 38.2321 14.2156 40.0794C13.8173 41.9243 13.5952 43.7671 13.5724 45.5178C13.5496 47.2695 13.7247 48.9227 14.0286 50.4042C14.3295 51.8878 14.7554 53.2 15.2028 54.3225C15.6513 55.4455 16.121 56.3812 16.5369 57.1309C16.9322 57.8512 17.2842 58.3965 17.5341 58.7762C17.6337 58.8275 17.7347 58.8767 17.8352 58.9269C17.8181 58.8662 17.7999 58.8016 17.7793 58.7295Z" fill="white"/>
<path d="M81.7835 44.7818C80.0962 44.7818 78.6355 44.4068 77.4014 43.657C76.1828 42.9071 75.2533 41.876 74.6128 40.5637C73.9722 39.2358 73.652 37.736 73.652 36.0644C73.652 34.1429 74.0269 32.4947 74.7768 31.1199C75.5423 29.7451 76.5968 28.7063 77.9403 28.0032C79.2839 27.2846 80.8149 26.9253 82.5333 26.9253C84.1112 26.9253 85.9312 27.1674 87.9934 27.6517L87.7825 31.7058H86.1187L85.5563 28.8937C85.3376 28.7219 84.9626 28.5578 84.4315 28.4016C83.9159 28.2454 83.2207 28.1673 82.3459 28.1673C81.2054 28.1673 80.1978 28.4485 79.3229 29.0109C78.4481 29.5733 77.7607 30.4091 77.2608 31.5183C76.7765 32.6275 76.5343 33.971 76.5343 35.5489C76.5343 37.0018 76.7296 38.3297 77.1202 39.5326C77.5263 40.7356 78.1356 41.7041 78.948 42.4384C79.776 43.157 80.7836 43.5164 81.9709 43.5164C82.7208 43.5164 83.4316 43.4304 84.1034 43.2586C84.7752 43.0711 85.2907 42.829 85.65 42.5321V37.3064L82.6974 37.0721V35.6895H89.54V37.0721L88.1809 37.283V43.5867C87.8372 43.6023 87.267 43.7351 86.4702 43.985C85.6578 44.235 84.8923 44.4303 84.1737 44.5709C83.4551 44.7115 82.6583 44.7818 81.7835 44.7818Z" fill="white"/>
<path d="M91.0687 43.3757L93.0137 43.1414V28.5657L91.1859 28.261V27.1128H94.2557C94.6931 27.1128 95.2868 27.0815 96.0367 27.019C96.8178 26.9565 97.4271 26.9253 97.8645 26.9253C100.161 26.9253 101.794 27.3002 102.762 28.0501C103.746 28.7844 104.238 29.9482 104.238 31.5417C104.238 32.6509 103.926 33.6664 103.301 34.5881C102.692 35.5098 101.848 36.1347 100.77 36.4628C101.27 36.7284 101.731 37.1893 102.153 37.8454C102.59 38.4859 103.121 39.3842 103.746 40.5403C104.231 41.4151 104.598 42.0557 104.848 42.4618C105.113 42.868 105.363 43.0945 105.598 43.1414L106.512 43.3757V44.524H103.278C103.028 44.524 102.746 44.2584 102.434 43.7273C102.122 43.1805 101.708 42.3447 101.192 41.2198C100.63 39.9857 100.138 39.0093 99.7157 38.2906C99.3096 37.5564 98.9034 37.0877 98.4972 36.8846C96.8256 36.8846 95.8336 36.8768 95.5211 36.8612V43.1414L97.841 43.3757V44.524H91.0687V43.3757ZM98.3097 35.6192C99.3096 35.6192 100.098 35.2911 100.677 34.635C101.255 33.9788 101.544 33.0024 101.544 31.7058C101.544 30.5653 101.247 29.6983 100.653 29.1046C100.075 28.4954 99.0674 28.1907 97.6301 28.1907C97.1302 28.1907 96.6303 28.222 96.1304 28.2844C95.8179 28.3157 95.6148 28.3313 95.5211 28.3313V35.5958C95.7554 35.6114 96.2397 35.6192 96.974 35.6192H98.3097Z" fill="white"/>
<path d="M114.669 44.7818C113.075 44.7818 111.724 44.4146 110.615 43.6804C109.521 42.9461 108.693 41.915 108.131 40.5871C107.568 39.2436 107.287 37.6892 107.287 35.9238C107.287 34.1273 107.623 32.5494 108.295 31.1902C108.982 29.8311 109.92 28.7844 111.107 28.0501C112.294 27.3002 113.63 26.9253 115.114 26.9253C117.551 26.9253 119.41 27.6986 120.691 29.2452C121.988 30.7762 122.636 32.9009 122.636 35.6192C122.636 37.447 122.285 39.0561 121.582 40.4465C120.894 41.8213 119.941 42.8915 118.723 43.657C117.52 44.4068 116.169 44.7818 114.669 44.7818ZM114.973 28.1438C113.458 28.1438 112.263 28.8078 111.388 30.1357C110.513 31.448 110.076 33.3774 110.076 35.9238C110.076 38.2672 110.498 40.1263 111.341 41.5011C112.2 42.8602 113.396 43.5398 114.927 43.5398C116.426 43.5398 117.614 42.8602 118.489 41.5011C119.379 40.1419 119.824 38.1891 119.824 35.6426C119.824 33.2836 119.402 31.448 118.559 30.1357C117.715 28.8078 116.52 28.1438 114.973 28.1438Z" fill="white"/>
<path d="M122.957 27.1128H129.307V28.2844L127.105 28.5657L130.315 39.4858L130.995 42.743L131.768 39.4858L134.463 30.5575L133.83 28.5657L132.166 28.2844V27.1128H138.751V28.2844L136.455 28.5657L139.618 39.4858L140.415 43.0008L141.071 39.4858L144.024 28.5657L141.704 28.2844V27.1128H147.281V28.2844L145.734 28.5657L141.071 44.6412H138.775L135.189 32.9009L131.721 44.6412H129.495L124.503 28.5891L122.957 28.2844V27.1128Z" fill="white"/>
<path d="M155.467 28.5657L153.615 28.2844V27.1128H159.989V28.2844L157.974 28.5657V34.8693H166.223V28.5657L164.324 28.2844V27.1128H170.605V28.2844L168.753 28.5657V43.1414L170.605 43.3757V44.524H164.301V43.3757L166.223 43.1414V36.3222H157.974V43.1414L160.013 43.3757V44.524H153.568V43.3757L155.467 43.1414V28.5657Z" fill="white"/>
<path d="M178.599 26.9722H181.176L186.871 43.1414L188.323 43.3757V44.524H182.137V43.3757L184.082 43.1414L182.981 39.6732H176.138L175.037 43.1414L177.052 43.3757V44.524H171.498V43.3757L172.951 43.1414L178.599 26.9722ZM180.075 30.7216L179.489 28.6594L178.927 30.7684L176.56 38.2906H182.535L180.075 30.7216Z" fill="white"/>
<path d="M191.473 28.5657L189.293 28.2844V27.1128H196.183V28.2844L194.003 28.5657V43.1414L196.183 43.3992V44.524H189.317V43.3757L191.473 43.1414V28.5657Z" fill="white"/>
<path d="M198.557 43.3757L200.502 43.1414V28.5657L198.674 28.261V27.1128H201.744C202.181 27.1128 202.775 27.0815 203.525 27.019C204.306 26.9565 204.915 26.9253 205.353 26.9253C207.649 26.9253 209.282 27.3002 210.25 28.0501C211.235 28.7844 211.727 29.9482 211.727 31.5417C211.727 32.6509 211.414 33.6664 210.789 34.5881C210.18 35.5098 209.337 36.1347 208.259 36.4628C208.759 36.7284 209.219 37.1893 209.641 37.8454C210.079 38.4859 210.61 39.3842 211.235 40.5403C211.719 41.4151 212.086 42.0557 212.336 42.4618C212.602 42.868 212.852 43.0945 213.086 43.1414L214 43.3757V44.524H210.766C210.516 44.524 210.235 44.2584 209.922 43.7273C209.61 43.1805 209.196 42.3447 208.68 41.2198C208.118 39.9857 207.626 39.0093 207.204 38.2906C206.798 37.5564 206.392 37.0877 205.986 36.8846C204.314 36.8846 203.322 36.8768 203.009 36.8612V43.1414L205.329 43.3757V44.524H198.557V43.3757ZM205.798 35.6192C206.798 35.6192 207.587 35.2911 208.165 34.635C208.743 33.9788 209.032 33.0024 209.032 31.7058C209.032 30.5653 208.735 29.6983 208.141 29.1046C207.563 28.4954 206.556 28.1907 205.119 28.1907C204.619 28.1907 204.119 28.222 203.619 28.2844C203.306 28.3157 203.103 28.3313 203.009 28.3313V35.5958C203.244 35.6114 203.728 35.6192 204.462 35.6192H205.798Z" fill="white"/>
</svg>
