<svg width="183" height="65" viewBox="0 0 183 65" fill="none" xmlns="http://www.w3.org/2000/svg">
<path d="M14.9929 50.2069C15.2121 50.5299 15.333 50.6985 15.333 50.6985C15.333 50.6985 15.2958 50.5557 15.2218 50.2927C15.1361 50.2499 15.0499 50.2078 14.9648 50.1641C14.974 50.1781 14.984 50.1935 14.9929 50.2069Z" fill="#00AEEF"/>
<path d="M32.064 51.8733C32.0193 52.5907 31.9933 53.3738 32.0083 54.1587C43.1409 51.3431 51.3801 41.2624 51.3801 29.2548C51.3801 19.6784 46.1396 11.3269 38.3706 6.90886C38.2379 6.47993 38.1009 6.06765 37.9604 5.67727C37.7389 5.05915 37.5129 4.48943 37.2917 3.96926C37.1793 3.70976 37.0706 3.4618 36.9641 3.22636C36.8554 2.99163 36.7466 2.77006 36.6462 2.55949C36.4389 2.14013 36.2516 1.77007 36.0752 1.45188C35.9 1.13397 35.7527 0.863463 35.6231 0.651818C35.3684 0.225128 35.2253 0.000244141 35.2253 0.000244141C35.2253 0.000244141 35.2653 0.263771 35.3537 0.75281C35.3768 0.874913 35.3996 1.01169 35.4227 1.16179C35.448 1.31091 35.4755 1.47362 35.5054 1.64948C35.5371 1.82383 35.5633 2.01472 35.5947 2.21626C35.6263 2.41779 35.6644 2.63016 35.6958 2.85656C35.8161 3.673 35.9453 4.64526 36.0543 5.74338C36.0659 5.86012 36.0775 5.97703 36.0886 6.09663C36.1523 6.77271 36.2026 7.49576 36.2374 8.25611C36.2665 8.89507 36.2849 9.56006 36.2893 10.2497C36.287 11.0056 36.274 11.789 36.2328 12.5966C36.224 12.7984 36.2062 13.002 36.196 13.2066C36.1895 13.309 36.185 13.4116 36.1769 13.5147C36.1686 13.6177 36.1602 13.7211 36.1518 13.8249C36.1206 14.2398 36.0777 14.6601 36.0357 15.085C35.8502 16.7851 35.5596 18.5603 35.1561 20.3788C35.104 20.6059 35.0517 20.8339 34.9991 21.0628C34.9478 21.2916 34.8858 21.5202 34.8321 21.7505C34.7782 21.9808 34.7163 22.2109 34.6564 22.4419C34.6262 22.5574 34.5961 22.6729 34.5658 22.7888C34.5337 22.9044 34.5017 23.0201 34.4695 23.136C34.4069 23.3683 34.3448 23.601 34.2761 23.8337C34.208 24.0663 34.1447 24.3002 34.0717 24.5333C34.0016 24.7669 33.9311 25.001 33.8605 25.2357C33.7885 25.4657 33.7163 25.6963 33.644 25.9273C33.5655 26.1683 33.487 26.4098 33.4082 26.6518L33.2943 26.9961L33.175 27.3474C33.0956 27.5827 33.0121 27.8183 32.9291 28.0542C32.8459 28.2905 32.7624 28.5272 32.679 28.7641C32.5092 29.2384 32.3327 29.712 32.1563 30.1898C31.9804 30.6671 31.7995 31.1456 31.6158 31.6255C30.8894 33.5471 30.1305 35.4978 29.4454 37.4827C28.7596 39.4664 28.1553 41.4895 27.7335 43.5142C27.3079 45.5362 27.0774 47.5589 27.0678 49.479C27.062 50.5945 27.1321 51.6712 27.259 52.6964C27.3506 53.437 27.471 54.1515 27.6182 54.8305C27.6213 54.8446 27.6247 54.858 27.6276 54.8721C27.801 55.6664 28.0024 56.417 28.2279 57.117C28.2838 57.2955 28.3455 57.4696 28.4028 57.642C28.459 57.8146 28.5219 57.9825 28.5837 58.1479C28.6462 58.3129 28.7033 58.4765 28.7676 58.6349C28.8316 58.7931 28.8947 58.9489 28.9568 59.1022C29.2117 59.7121 29.4688 60.2719 29.7258 60.7784C29.79 60.9048 29.8529 61.0285 29.9144 61.1497C29.976 61.2706 30.0417 61.3866 30.1029 61.5008C30.2252 61.7294 30.3463 61.9447 30.4659 62.1463C30.9311 62.9584 31.3441 63.5649 31.6275 63.9748C31.9168 64.382 32.0771 64.5935 32.0771 64.5935C32.0771 64.5935 32.0163 64.3329 31.8909 63.8542C31.8594 63.7347 31.8287 63.5994 31.7926 63.452C31.7558 63.3051 31.7157 63.1449 31.6724 62.9716C31.5938 62.6227 31.4948 62.2271 31.3989 61.7815C31.2073 60.8907 30.9887 59.8145 30.815 58.5853C30.728 57.9707 30.6538 57.3182 30.5937 56.634C30.5355 55.9514 30.5003 55.2361 30.4893 54.4948C30.4893 54.4927 30.4892 54.4908 30.4892 54.4887C30.4788 53.7645 30.4967 53.015 30.5461 52.2458C30.5982 51.4352 30.6855 50.6027 30.8143 49.753C31.0666 48.0963 31.4742 46.3769 32.0233 44.6108C32.296 43.7278 32.6034 42.8317 32.9345 41.9242C33.0997 41.4697 33.2701 41.0127 33.4493 40.5529C33.6234 40.0921 33.8058 39.6281 33.9911 39.1617C34.7296 37.2935 35.5243 35.3711 36.2759 33.3905C36.6484 32.3999 37.0139 31.3953 37.3514 30.3786C37.4353 30.1237 37.5205 29.87 37.6017 29.6142C37.6818 29.3579 37.7622 29.1024 37.8389 28.8448L37.9552 28.4579C37.9935 28.3262 38.0319 28.1946 38.0703 28.0632L38.1267 27.8681L38.178 27.682C38.2117 27.5579 38.2454 27.4339 38.279 27.3099C38.3472 27.0471 38.4154 26.7848 38.4833 26.5231C38.5487 26.2652 38.6113 26.0065 38.672 25.7485C38.7347 25.4912 38.788 25.2309 38.8458 24.9733C38.9041 24.7159 38.9559 24.457 39.0081 24.1992C39.0335 24.0702 39.059 23.9414 39.0843 23.8127C39.1076 23.6835 39.1308 23.5545 39.1539 23.4256C39.1998 23.1679 39.2474 22.9118 39.2872 22.6542C39.3736 22.1413 39.4408 21.6279 39.5079 21.1193C39.7609 19.0813 39.8445 17.0852 39.7745 15.2013C39.7526 14.7302 39.7324 14.2663 39.6912 13.8101C39.6821 13.6962 39.673 13.5827 39.664 13.4697C39.6547 13.3567 39.6418 13.2442 39.6309 13.1323C39.6079 12.9084 39.5855 12.6865 39.5578 12.467C39.5291 12.2478 39.5005 12.0305 39.4722 11.8151C39.4446 11.5999 39.4061 11.3876 39.3735 11.1774C39.3566 11.0723 39.3398 10.9678 39.3229 10.8637C39.3039 10.7601 39.285 10.6568 39.2662 10.5541C39.2321 10.3685 39.1974 10.1855 39.161 10.004C45.2218 14.2531 49.1849 21.2905 49.1849 29.2544C49.1852 40.0215 41.9427 49.0952 32.064 51.8733Z" fill="#414042"/>
<path d="M29.8292 13.3795C29.8012 12.5531 29.7395 11.7514 29.6524 10.9806C29.6284 10.7882 29.6045 10.5975 29.5809 10.4085C29.5577 10.2196 29.5252 10.0332 29.4979 9.84861C29.4835 9.75639 29.4695 9.66452 29.4553 9.57319C29.4393 9.48203 29.4232 9.39151 29.4073 9.30125C29.3753 9.121 29.3435 8.94281 29.309 8.76704C29.1048 7.74343 28.8619 6.79809 28.5982 5.93917C28.4997 5.6183 28.3986 5.30844 28.2951 5.01262C28.1245 4.52349 27.9518 4.07005 27.7796 3.65025C27.7602 3.60302 27.7408 3.55427 27.7214 3.50793C27.624 3.28 27.5306 3.06138 27.4413 2.85242C27.349 2.64507 27.2553 2.44962 27.1692 2.26364C26.9915 1.89349 26.8307 1.56645 26.6795 1.28521C26.5292 1.00424 26.403 0.76504 26.2917 0.577547C26.073 0.199699 25.9506 0.000488281 25.9506 0.000488281C25.9506 0.000488281 25.9893 0.231187 26.0727 0.659576C26.0945 0.766561 26.1162 0.886428 26.1383 1.01801C26.1622 1.14879 26.1882 1.29156 26.2164 1.44578C26.2463 1.59883 26.2715 1.76611 26.3013 1.94295C26.3311 2.11989 26.367 2.30622 26.397 2.50499C26.4279 2.70348 26.4573 2.91307 26.494 3.13044C26.5148 3.2758 26.5364 3.42733 26.5584 3.58155C26.5695 3.65902 26.5804 3.73586 26.5918 3.81556C26.6096 3.93408 26.6229 4.05619 26.6377 4.18008C26.6533 4.30361 26.6692 4.42956 26.6854 4.55775C26.7028 4.68549 26.7154 4.81654 26.7294 4.94928C26.7441 5.08176 26.7589 5.21648 26.774 5.35334C26.7889 5.49566 26.803 5.64066 26.8166 5.78755C26.9072 6.77081 26.9675 7.85408 26.9841 9.01357C26.9878 9.68062 26.9816 10.3724 26.9502 11.0857C26.9436 11.264 26.9296 11.4438 26.9215 11.6246C26.9138 11.8055 26.9004 11.9876 26.8862 12.171C26.8612 12.5377 26.8256 12.9091 26.7907 13.2848C26.6361 14.7878 26.3873 16.3581 26.0372 17.9666C25.8604 18.7706 25.6626 19.5849 25.4391 20.4049C25.3843 20.6102 25.33 20.8161 25.2699 21.0217C25.2103 21.2274 25.1549 21.4342 25.091 21.6403C25.0294 21.8467 24.9676 22.0537 24.9058 22.2611C24.8426 22.4647 24.7792 22.6687 24.7156 22.8732C24.6469 23.0858 24.578 23.2987 24.509 23.5121L24.4086 23.8169L24.3038 24.1274C24.1627 24.543 24.0147 24.9598 23.8674 25.3785C23.5654 26.2144 23.2549 27.0566 22.9309 27.9026C22.2907 29.5964 21.6214 31.3127 21.0163 33.0562C20.4108 34.7987 19.8761 36.5727 19.5005 38.3465C19.1217 40.118 18.9126 41.8884 18.8961 43.5698C18.8791 45.2522 19.0531 46.8393 19.3508 48.2603C19.4995 48.971 19.6742 49.6423 19.8704 50.2686C19.9182 50.4255 19.971 50.5785 20.0201 50.73C20.0681 50.8818 20.1219 51.0297 20.175 51.175C20.2285 51.3202 20.2773 51.4642 20.3325 51.6036C20.3875 51.7429 20.4416 51.8801 20.4948 52.0151C20.5189 52.0741 20.543 52.1305 20.5671 52.1884C18.6906 51.7711 16.8991 51.1295 15.2214 50.293C15.2953 50.556 15.3326 50.6987 15.3326 50.6987C15.3326 50.6987 15.2116 50.5302 14.9925 50.2072C14.9836 50.1938 14.9735 50.1784 14.9644 50.1644C7.38191 46.2672 2.19472 38.3671 2.19472 29.2551C2.19472 19.1828 8.53308 10.5916 17.4385 7.25064C17.2468 6.42141 16.961 5.72394 16.6888 5.18857C6.94064 8.83601 0 18.2342 0 29.2551C0 42.1077 9.43816 52.7554 21.7617 54.6464C21.7718 54.6639 21.7819 54.6829 21.792 54.7002C22.1924 55.4179 22.548 55.955 22.792 56.3183C23.0411 56.6792 23.1788 56.8671 23.1788 56.8671C23.1788 56.8671 23.1218 56.6393 23.006 56.2204C22.951 56.0105 22.8833 55.7517 22.8037 55.4474C22.7539 55.2394 22.6955 55.0106 22.6353 54.7635C22.607 54.6475 22.5786 54.5288 22.5501 54.4041C22.4213 53.8458 22.2821 53.2017 22.1531 52.4853C22.1015 52.1997 22.0516 51.9037 22.0048 51.5952C21.9225 51.0544 21.8514 50.4795 21.7927 49.8763C21.7355 49.2728 21.6986 48.6396 21.6835 47.9829C21.6537 46.6689 21.7272 45.2596 21.9401 43.7927C22.154 42.3252 22.5068 40.8011 22.9861 39.2377C23.4612 37.6733 24.0622 36.0694 24.7097 34.4206C25.3582 32.772 26.0566 31.0785 26.7172 29.3369C27.045 28.4657 27.3665 27.583 27.6637 26.6903C27.7375 26.4666 27.8126 26.2438 27.8841 26.0193C27.9546 25.7943 28.0256 25.57 28.0933 25.344L28.1956 25.0045L28.2969 24.6588L28.3466 24.4877L28.3919 24.3239C28.4217 24.2147 28.4517 24.1056 28.4815 23.9966C28.5416 23.7663 28.6017 23.5364 28.6617 23.3071C28.7196 23.0809 28.7748 22.854 28.8287 22.6277C28.8842 22.4019 28.9315 22.1737 28.9827 21.9478C29.0344 21.722 29.0803 21.495 29.1266 21.2689C29.3075 20.3635 29.4591 19.4617 29.5731 18.5684C29.8015 16.7816 29.882 15.0318 29.8292 13.3795Z" fill="#7C4701"/>
<path d="M15.1739 50.124C15.1235 49.9375 15.0613 49.7075 14.9882 49.4371C14.9209 49.1653 14.8371 48.8569 14.7552 48.5091C14.5904 47.8142 14.4033 46.9726 14.2511 46.0081C14.1762 45.5255 14.1085 45.0132 14.0535 44.4747C13.9993 43.9361 13.9635 43.3707 13.9469 42.784C13.9141 41.6102 13.9741 40.3496 14.1594 39.0371C14.3456 37.7239 14.6569 36.3596 15.082 34.961C15.5032 33.5615 16.0375 32.1277 16.614 30.6557C17.191 29.1838 17.8131 27.6736 18.4016 26.1219C18.6937 25.3458 18.9799 24.5598 19.2451 23.7653C19.3784 23.3677 19.5073 22.9691 19.6283 22.5671C19.6896 22.3684 19.7499 22.1629 19.8099 21.9578L19.8542 21.8056L19.8948 21.6596L19.975 21.3679C20.0287 21.1631 20.0824 20.9589 20.1359 20.7549C20.1876 20.5537 20.2369 20.3518 20.2851 20.1505C20.3348 19.9497 20.3772 19.7467 20.4229 19.5457C20.4693 19.3449 20.5105 19.143 20.5519 18.9419C20.714 18.1366 20.8503 17.3346 20.9534 16.5403C21.1592 14.9514 21.2349 13.3954 21.1925 11.9257C21.1699 11.1906 21.1175 10.4774 21.0426 9.7915C20.967 9.10558 20.862 8.44756 20.7451 7.8213C20.6451 7.3099 20.5344 6.82122 20.416 6.35437C20.2445 5.67855 20.0565 5.04997 19.8585 4.47648C19.8316 4.39947 19.8051 4.32486 19.7783 4.24963C19.6375 3.85166 19.4992 3.47757 19.3568 3.13398C19.2715 2.93056 19.1895 2.73547 19.1113 2.54896C19.0302 2.36379 18.9481 2.18927 18.8728 2.02315C18.564 1.36228 18.2931 0.854811 18.103 0.516322C17.9111 0.178369 17.8039 0 17.8039 0C17.8039 0 17.8402 0.204937 17.9176 0.585737C17.9379 0.680825 17.958 0.787453 17.9787 0.904368C18.0008 1.02066 18.0251 1.14768 18.0514 1.28481C18.079 1.42087 18.1026 1.56981 18.1305 1.72715C18.1583 1.88459 18.1914 2.05044 18.2194 2.22728C18.3305 2.88548 18.4494 3.67517 18.5515 4.57077C18.5588 4.63517 18.5663 4.69869 18.5734 4.76417C18.6421 5.39624 18.6978 6.08028 18.735 6.80637C18.7552 7.20211 18.7701 7.60993 18.7781 8.02964C18.7842 8.62513 18.7817 9.24289 18.7565 9.88024C18.7296 10.5176 18.6857 11.1737 18.6218 11.8454C18.4888 13.1886 18.2708 14.5928 17.9613 16.0308C17.8052 16.7497 17.6298 17.4776 17.4316 18.2106C17.383 18.3941 17.3347 18.5781 17.2813 18.7619C17.2283 18.9457 17.1792 19.1305 17.1223 19.3147C17.0676 19.4993 17.0127 19.6842 16.9576 19.8696C16.9014 20.0516 16.8449 20.2341 16.7884 20.4171C16.7272 20.6067 16.666 20.7967 16.6046 20.9871C16.5452 21.1685 16.4858 21.3501 16.4215 21.5373C16.2959 21.9086 16.164 22.2809 16.0327 22.6548C15.7635 23.4014 15.4866 24.1531 15.1976 24.9079C14.6263 26.4191 14.0289 27.9487 13.4885 29.5009C12.9476 31.0523 12.4695 32.63 12.1325 34.2066C11.7925 35.7812 11.6029 37.354 11.5835 38.8482C11.564 40.3432 11.7135 41.7541 11.9728 43.0185C12.2296 44.2848 12.5931 45.4047 12.9749 46.3627C13.3578 47.3211 13.7586 48.1198 14.1136 48.7596C14.451 49.3743 14.7514 49.8398 14.9646 50.1639C15.0497 50.2076 15.1358 50.2496 15.2216 50.2925C15.207 50.2406 15.1915 50.1855 15.1739 50.124Z" fill="#7C4701"/>
<path d="M69.8 38.22C68.36 38.22 67.1133 37.9 66.06 37.26C65.02 36.62 64.2267 35.74 63.68 34.62C63.1333 33.4867 62.86 32.2067 62.86 30.78C62.86 29.14 63.18 27.7333 63.82 26.56C64.4733 25.3867 65.3733 24.5 66.52 23.9C67.6667 23.2867 68.9733 22.98 70.44 22.98C71.7867 22.98 73.34 23.1867 75.1 23.6L74.92 27.06H73.5L73.02 24.66C72.8333 24.5133 72.5133 24.3733 72.06 24.24C71.62 24.1067 71.0267 24.04 70.28 24.04C69.3067 24.04 68.4467 24.28 67.7 24.76C66.9533 25.24 66.3667 25.9533 65.94 26.9C65.5267 27.8467 65.32 28.9933 65.32 30.34C65.32 31.58 65.4867 32.7133 65.82 33.74C66.1667 34.7667 66.6867 35.5933 67.38 36.22C68.0867 36.8333 68.9467 37.14 69.96 37.14C70.6 37.14 71.2067 37.0667 71.78 36.92C72.3533 36.76 72.7933 36.5533 73.1 36.3V31.84L70.58 31.64V30.46H76.42V31.64L75.26 31.82V37.2C74.9667 37.2133 74.48 37.3267 73.8 37.54C73.1067 37.7533 72.4533 37.92 71.84 38.04C71.2267 38.16 70.5467 38.22 69.8 38.22ZM77.7247 37.02L79.3847 36.82V24.38L77.8247 24.12V23.14H80.4447C80.818 23.14 81.3247 23.1133 81.9647 23.06C82.6314 23.0067 83.1514 22.98 83.5247 22.98C85.4847 22.98 86.878 23.3 87.7047 23.94C88.5447 24.5667 88.9647 25.56 88.9647 26.92C88.9647 27.8667 88.698 28.7333 88.1647 29.52C87.6447 30.3067 86.9247 30.84 86.0047 31.12C86.4314 31.3467 86.8247 31.74 87.1847 32.3C87.558 32.8467 88.0114 33.6133 88.5447 34.6C88.958 35.3467 89.2714 35.8933 89.4847 36.24C89.7114 36.5867 89.9247 36.78 90.1247 36.82L90.9047 37.02V38H88.1447C87.9314 38 87.6914 37.7733 87.4247 37.32C87.158 36.8533 86.8047 36.14 86.3647 35.18C85.8847 34.1267 85.4647 33.2933 85.1047 32.68C84.758 32.0533 84.4114 31.6533 84.0647 31.48C82.638 31.48 81.7914 31.4733 81.5247 31.46V36.82L83.5047 37.02V38H77.7247V37.02ZM83.9047 30.4C84.758 30.4 85.4314 30.12 85.9247 29.56C86.418 29 86.6647 28.1667 86.6647 27.06C86.6647 26.0867 86.4114 25.3467 85.9047 24.84C85.4114 24.32 84.5514 24.06 83.3247 24.06C82.898 24.06 82.4714 24.0867 82.0447 24.14C81.778 24.1667 81.6047 24.18 81.5247 24.18V30.38C81.7247 30.3933 82.138 30.4 82.7647 30.4H83.9047ZM97.8667 38.22C96.5067 38.22 95.3534 37.9067 94.4067 37.28C93.4734 36.6533 92.7667 35.7733 92.2867 34.64C91.8067 33.4933 91.5667 32.1667 91.5667 30.66C91.5667 29.1267 91.8534 27.78 92.4267 26.62C93.0134 25.46 93.8134 24.5667 94.8267 23.94C95.8401 23.3 96.9801 22.98 98.2467 22.98C100.327 22.98 101.913 23.64 103.007 24.96C104.113 26.2667 104.667 28.08 104.667 30.4C104.667 31.96 104.367 33.3333 103.767 34.52C103.18 35.6933 102.367 36.6067 101.327 37.26C100.3 37.9 99.1467 38.22 97.8667 38.22ZM98.1267 24.02C96.8334 24.02 95.8134 24.5867 95.0667 25.72C94.3201 26.84 93.9467 28.4867 93.9467 30.66C93.9467 32.66 94.3067 34.2467 95.0267 35.42C95.7601 36.58 96.7801 37.16 98.0867 37.16C99.3667 37.16 100.38 36.58 101.127 35.42C101.887 34.26 102.267 32.5933 102.267 30.42C102.267 28.4067 101.907 26.84 101.187 25.72C100.467 24.5867 99.4467 24.02 98.1267 24.02ZM104.94 23.14H110.36V24.14L108.48 24.38L111.22 33.7L111.8 36.48L112.46 33.7L114.76 26.08L114.22 24.38L112.8 24.14V23.14H118.42V24.14L116.46 24.38L119.16 33.7L119.84 36.7L120.4 33.7L122.92 24.38L120.94 24.14V23.14H125.7V24.14L124.38 24.38L120.4 38.1H118.44L115.38 28.08L112.42 38.1H110.52L106.26 24.4L104.94 24.14V23.14ZM132.686 24.38L131.106 24.14V23.14H136.546V24.14L134.826 24.38V29.76H141.866V24.38L140.246 24.14V23.14H145.606V24.14L144.026 24.38V36.82L145.606 37.02V38H140.226V37.02L141.866 36.82V31H134.826V36.82L136.566 37.02V38H131.066V37.02L132.686 36.82V24.38ZM152.429 23.02H154.629L159.489 36.82L160.729 37.02V38H155.449V37.02L157.109 36.82L156.169 33.86H150.329L149.389 36.82L151.109 37.02V38H146.369V37.02L147.609 36.82L152.429 23.02ZM153.689 26.22L153.189 24.46L152.709 26.26L150.689 32.68H155.789L153.689 26.22ZM163.417 24.38L161.557 24.14V23.14H167.437V24.14L165.577 24.38V36.82L167.437 37.04V38H161.577V37.02L163.417 36.82V24.38ZM169.463 37.02L171.123 36.82V24.38L169.563 24.12V23.14H172.183C172.556 23.14 173.063 23.1133 173.703 23.06C174.37 23.0067 174.89 22.98 175.263 22.98C177.223 22.98 178.616 23.3 179.443 23.94C180.283 24.5667 180.703 25.56 180.703 26.92C180.703 27.8667 180.436 28.7333 179.903 29.52C179.383 30.3067 178.663 30.84 177.743 31.12C178.17 31.3467 178.563 31.74 178.923 32.3C179.296 32.8467 179.75 33.6133 180.283 34.6C180.696 35.3467 181.01 35.8933 181.223 36.24C181.45 36.5867 181.663 36.78 181.863 36.82L182.643 37.02V38H179.883C179.67 38 179.43 37.7733 179.163 37.32C178.896 36.8533 178.543 36.14 178.103 35.18C177.623 34.1267 177.203 33.2933 176.843 32.68C176.496 32.0533 176.15 31.6533 175.803 31.48C174.376 31.48 173.53 31.4733 173.263 31.46V36.82L175.243 37.02V38H169.463V37.02ZM175.643 30.4C176.496 30.4 177.17 30.12 177.663 29.56C178.156 29 178.403 28.1667 178.403 27.06C178.403 26.0867 178.15 25.3467 177.643 24.84C177.15 24.32 176.29 24.06 175.063 24.06C174.636 24.06 174.21 24.0867 173.783 24.14C173.516 24.1667 173.343 24.18 173.263 24.18V30.38C173.463 30.3933 173.876 30.4 174.503 30.4H175.643Z" fill="black"/>
</svg>
